# xmcd
#
# Track frame offsets: 
#        150
#        30582
#        45526
#        60362
#        77476
#        94802
#        111719
#        126560
#        141472
#        157862
#        175712
#        191769
#        208889
#        226004
#        241127
#        258624
#        280135
#        297519
#
# Disc length: 4195 seconds
#
# Revision: 0
# Processed by: cddbd v1.5.2PL0 Copyright (c) Steve Scherf et al.
# Submitted via: ExactAudioCopy v1.0b3
#
DISCID=07106112
DTITLE=Various Artist - This Is The Real Club Sound - CD 2
DYEAR=1900
DGENRE=
TTITLE0=Scotty - West End Girls (1st Mix)
TTITLE1=Kash Vs. INXS - Dream On Black Girl (Roman Vincent Rmx Edit)
TTITLE2=Royal Melody - (Love Is Like) Oxygen (Raw Shape Radio Edit)
TTITLE3=House Shoes - Energy (Club Radio Mix)
TTITLE4=Winman - Fade To Grey (Scotty's Radio Rmx)
TTITLE5=A Flock Of Seagulls Vs. The Angry Kids - I Ran (So Far Away) (
TTITLE5=Beckstein's Radio Cut)
TTITLE6=Niels Van Gogh Vs. Eniac - Pulverturm 2.0 (NVG's New Club Mix)
TTITLE7=Mr. Joy - Keep On Movin' 2007 (Mondo Radio Rmx)
TTITLE8=K La Guard Feat. Andy Kiys - Shooting Star (Radio Edit)
TTITLE9=Bigg Papazz - Crazy Nation (Radio Mix)
TTITLE10=Niko De Luka Vs. Brown Sugar - Lift Me Up (Radio Mix)
TTITLE11=Belmond and Parker - Going Back To My Roots (Radio Mix)
TTITLE12=Disco Deejays - Upside Down (Radio Mix)
TTITLE13=Groovestylerz - We Are Family (Groovestylerz Aka Rockstroh 20
TTITLE13=07 Rework Edit)
TTITLE14=Milk and Sugar Pres. MS 2 - Stay Around (For This) (Milk and Suga
TTITLE14=r Radio Edit)
TTITLE15=Belushi - It's My Life 2007 (Foundation Mix)
TTITLE16=Candy Williams Feat. Whiteside - Have It All (Original House 
TTITLE16=Radio Mix)
TTITLE17=Beat Control - Living In A Box (Commercial Radio Cut)
EXTD=
EXTT0=
EXTT1=
EXTT2=
EXTT3=
EXTT4=
EXTT5=
EXTT6=
EXTT7=
EXTT8=
EXTT9=
EXTT10=
EXTT11=
EXTT12=
EXTT13=
EXTT14=
EXTT15=
EXTT16=
EXTT17=
PLAYORDER=
